<?xml version="1.0" encoding="utf-8"?>
<!-- Generator: Adobe Illustrator 19.0.0, SVG Export Plug-In . SVG Version: 6.00 Build 0)  -->
<svg version="1.1" id="Layer_1" xmlns="http://www.w3.org/2000/svg" xmlns:xlink="http://www.w3.org/1999/xlink" x="0px" y="0px"
	 viewBox="0 0 360 194.4" style="enable-background:new 0 0 360 194.4;" xml:space="preserve">
<style type="text/css">
	.st0{opacity:0.56;fill:url(#XMLID_24_);enable-background:new    ;}
	.st1{fill:#F8AF9F;}
	.st2{fill:#D79680;}
	.st3{fill:#F0BBA8;}
	.st4{fill:#E17156;}
	.st5{fill:#261D17;}
	.st6{fill:#261D18;}
	.st7{fill:#12B692;}
	.st8{fill:#79C9B3;}
	.st9{fill:#B7C9CA;stroke:#39555A;stroke-width:3;stroke-miterlimit:10;}
	.st10{fill:#546E7C;}
	.st11{fill:#314241;}
	.st12{fill:#F2AB6C;}
	.st13{fill:#000100;}
	.st14{font-family:'AquaGrotesque';}
	.st15{font-size:14.0439px;}
</style>
<linearGradient id="XMLID_24_" gradientUnits="userSpaceOnUse" x1="180.3271" y1="194.0028" x2="180.3271" y2="134.9693">
	<stop  offset="0.2043" style="stop-color:#FFFFFF;stop-opacity:0"/>
	<stop  offset="0.8548" style="stop-color:#040504"/>
	<stop  offset="1" style="stop-color:#000000"/>
</linearGradient>
<path id="XMLID_18_" class="st0" d="M333.8,194c-101.5,0-203,0-304.5,0c-7.7-19.6-15.3-39.4-22.9-59c116,0,231.9,0.1,347.9,0.1
	C347.4,154.7,340.6,174.4,333.8,194z"/>
<g id="XMLID_1_">
	<g id="XMLID_35_">
		<ellipse id="XMLID_17_" class="st1" cx="153.4" cy="42.1" rx="6.7" ry="8.4"/>
		<ellipse id="XMLID_16_" class="st2" cx="153.3" cy="42.1" rx="3.3" ry="5"/>
	</g>
	<g id="XMLID_32_">
		<ellipse id="XMLID_15_" class="st3" cx="201.3" cy="42.1" rx="6.7" ry="8.4"/>
		<ellipse id="XMLID_14_" class="st2" cx="201.2" cy="42.1" rx="3.3" ry="5"/>
	</g>
	<path id="XMLID_13_" class="st1" d="M201,59.8c0,9.8-10.8,17.8-24.1,17.8l0,0c-13.3,0.1-24.1-8-24.1-17.8V29.9
		c0-9.8,10.8-17.8,24.1-17.8l0,0C190.2,12,201,20,201,29.9V59.8z"/>
	<path id="XMLID_12_" class="st4" d="M203.9,31v2.8h-9.6c-4.3-3.7-8.7-8.3-13.3-12.6c0.5,4.2,1.1,8.9,1.6,12.6h-32.8V31
		c0-16.2,12.2-29.3,26.9-29.3c7.3,0,14.3,3.3,19.1,8.6C200.6,15.6,203.9,22.9,203.9,31z"/>
	<path id="XMLID_11_" class="st5" d="M95.8,209.6C95.8,209.7,95.8,209.7,95.8,209.6L95.8,209.6c0-0.1-0.1-0.3-0.1-0.4
		C95.8,209.4,95.8,209.5,95.8,209.6z"/>
	<path id="XMLID_10_" class="st6" d="M184.1,40.2h9.6c-0.4,2.8-2.4,6.4-4.8,6.4C186.4,46.7,184.5,43,184.1,40.2z"/>
	<path id="XMLID_9_" class="st6" d="M161.6,40.2h9.6c-0.4,2.8-2.4,6.4-4.8,6.4C164,46.7,162,43,161.6,40.2z"/>
	<g id="XMLID_25_">
		<path id="XMLID_8_" class="st7" d="M97,87.7l-0.9-1.8c-1.6-3.2-0.3-7.3,2.8-8.9l49.4-26.2c3.1-1.7,7-0.4,8.6,2.8l0.9,1.8
			c1.6,3.2,0.3,7.3-2.8,8.9l-49.4,26.3C102.4,92.3,98.6,90.9,97,87.7z"/>
		<path id="XMLID_7_" class="st8" d="M95.8,80.1L95.8,80.1c1.9-3.7,6.4-5.1,9.9-3.2l47.3,25.7c3.5,1.9,5,6.6,3.1,10.3l0,0
			c-1.9,3.7-6.4,5.1-9.9,3.2L99,90.4C95.3,88.4,94,83.7,95.8,80.1z"/>
	</g>
	<g id="XMLID_22_">
		<path id="XMLID_6_" class="st7" d="M256.6,87.7l0.9-1.8c1.6-3.2,0.3-7.3-2.8-8.9l-49.4-26.2c-3.1-1.7-7-0.4-8.6,2.8l-0.9,1.8
			c-1.6,3.2-0.3,7.3,2.8,8.9L248,90.5C251.2,92.3,255,90.9,256.6,87.7z"/>
		<path id="XMLID_5_" class="st8" d="M257.8,80.1L257.8,80.1c-1.9-3.7-6.4-5.1-9.9-3.2l-47.3,25.7c-3.5,1.9-5,6.6-3.1,10.3l0,0
			c1.9,3.7,6.4,5.1,9.9,3.2l47.3-25.7C258.2,88.4,259.6,83.7,257.8,80.1z"/>
	</g>
	<path id="XMLID_4_" class="st9" d="M232.3,119.9H123.6c-2.4,0-4.3-1.8-4.3-4V55.4c0-2.2,2-4,4.3-4h108.6c2.4,0,4.3,1.8,4.3,4v60.5
		C236.6,118.2,234.6,119.9,232.3,119.9z"/>
	<path id="XMLID_3_" class="st10" d="M237.1,123.8c0,1.2-1.9,1.8-4.1,1.8H122.4c-2.3,0-4.1-0.6-4.1-1.8l0,0c0-1.2,1.9-1.8,4.1-1.8
		h110.5C235.2,121.9,237.1,122.6,237.1,123.8L237.1,123.8z"/>
	<path id="XMLID_2_" class="st11" d="M354.5,135.7c0,4-3.5,7.3-7.9,7.3H14.1c-4.3,0-7.9-3.3-7.9-7.3V133c0-4,3.5-7.3,7.9-7.3h332.5
		c4.3,0,7.9,3.3,7.9,7.3V135.7z"/>
</g>
<path id="XMLID_20_" class="st12" d="M370,133.6"/>
<path id="XMLID_21_" class="st12" d="M366.1,134.8"/>
<text id="XMLID_19_" transform="matrix(1.0716 0 0 1 141.5977 87.0132)" class="st13 st14 st15">Hello World!</text>
</svg>
